<?xml version="1.0"?>
<svg xmlns="http://www.w3.org/2000/svg" xmlns:xlink="http://www.w3.org/1999/xlink" xmlns:svgjs="http://svgjs.com/svgjs" version="1.1" width="512" height="512" x="0" y="0" viewBox="0 0 420 420.00112" style="enable-background:new 0 0 512 512" xml:space="preserve" class=""><g transform="matrix(1.03,0,0,1.03,-11.273959655761672,-6.299998512267933)"><path xmlns="http://www.w3.org/2000/svg" d="m152.171875 327.882812c-25.4375 0-46.058594 20.625-46.058594 46.0625.003907 25.4375 20.625 46.054688 46.0625 46.054688s46.058594-20.621094 46.058594-46.058594c-.03125-25.425781-20.636719-46.03125-46.0625-46.058594zm0 72.117188c-14.390625 0-26.058594-11.667969-26.058594-26.0625.003907-14.390625 11.667969-26.054688 26.0625-26.054688 14.390625 0 26.058594 11.667969 26.058594 26.058594-.019531 14.386719-11.675781 26.042969-26.0625 26.058594zm0 0" fill="#ffffff" data-original="#000000" style="" class=""/><path xmlns="http://www.w3.org/2000/svg" d="m333.449219 327.882812c-25.4375 0-46.058594 20.621094-46.058594 46.058594s20.621094 46.058594 46.058594 46.058594 46.058593-20.621094 46.058593-46.058594c-.03125-25.425781-20.632812-46.027344-46.058593-46.058594zm0 72.117188c-14.394531 0-26.058594-11.667969-26.058594-26.058594 0-14.394531 11.667969-26.058594 26.058594-26.058594s26.058593 11.667969 26.058593 26.058594c-.015624 14.386719-11.675781 26.042969-26.058593 26.058594zm0 0" fill="#ffffff" data-original="#000000" style="" class=""/><path xmlns="http://www.w3.org/2000/svg" d="m408.265625 81.679688h-313.566406l-6.800781-40.046876c-4.027344-24.070312-24.886719-41.6835932-49.289063-41.632812h-28.609375c-5.523438 0-10 4.476562-10 10s4.476562 10 10 10h28.605469c14.644531-.03125 27.160156 10.539062 29.578125 24.980469l36.207031 213.3125c4.03125 24.074219 24.894531 41.691406 49.300781 41.632812h213.171875c5.519531 0 10-4.476562 10-10 0-5.523437-4.480469-10-10-10h-213.175781c-14.640625.035157-27.15625-10.535156-29.574219-24.976562l-3.640625-21.449219h209.023438c26.089844.058594 49.210937-16.804688 57.128906-41.664062l31.160156-97.101563c.976563-3.042969.441406-6.367187-1.441406-8.949219-1.882812-2.582031-4.882812-4.105468-8.078125-4.105468zm-40.683594 104.046874c-5.28125 16.574219-20.695312 27.8125-38.089843 27.773438h-212.414063l-18.984375-111.820312h296.457031zm0 0" fill="#ffffff" data-original="#000000" style="" class=""/><style xmlns="http://www.w3.org/1999/xhtml" id="VMst1lf9rtwu2alrno9y">#smgm_bgdiv{ text-align: center;position:fixed;top:0px;left:0px;z-index:9991;width:100%;height:100%;background-color:black;opacity:0.7;display:block;visibility:visible;}</style><style xmlns="http://www.w3.org/1999/xhtml" id="VMst6trx6r174x9jgwiq">#smgm_dialogbox { vertical-align:middle;left:40px;top:15px;border:3px solid #000 !important;text-align:center !important;background-color:#fff !important;color:#000 !important;font-family:arial,verdana !important;z-Index:9999;position:fixed;width:18%;height:50%;margin-left:auto;margin-right:auto;display:block;visibility:visible;}</style><style xmlns="http://www.w3.org/1999/xhtml" id="VMst8f76yja83dliqr7h">.smgm_buttons { color:#000 !important;font: 90% 'arial','trebuchet ms',helvetica,sans-serif !important;background-color:#B2CCFF !important;border:2px solid !important;border-color: #E0EBFF #000 #000 #E0EBFF !important;vertical-align: top !important;}</style><style xmlns="http://www.w3.org/1999/xhtml" id="VMst9mubias12woqmqjx">.smgm_table { margin-bottom:10px !important;border:0px !important;border-collapse:collapse !important;margin-left:auto;margin-right:auto; }</style></g></svg>
